<mxfile host="app.diagrams.net" modified="2024-02-28T02:42:53.918Z" agent="Mozilla/5.0 (Windows NT 10.0; Win64; x64) AppleWebKit/537.36 (KHTML, like Gecko) Chrome/122.0.0.0 Safari/537.36 Edg/122.0.0.0" version="23.1.4" etag="FDby4U4ffFx4SHeG1u2f" type="github">
  <diagram name="第 1 页" id="7qHCvkEyFTYcSTKB9Kgw">
    <mxGraphModel>
      <root>
        <mxCell id="0" />
        <mxCell id="1" parent="0" />
      </root>
    </mxGraphModel>
  </diagram>
</mxfile>
